<svg xmlns="http://www.w3.org/2000/svg" width="24" height="24" stroke-width="1.5" stroke="#808080" fill="none" stroke-linejoin="round" stroke-linecap="round" viewBox="0 0 24 24"> <g fill="none" fill-rule="evenodd"><rect width="24" height="24" style="stroke:rgba(0,0,0,0)"></rect><path d="M6,13 L6,4 C6,2.896 6.895,2 8,2 L16,2 L22,8 L22,17.5 L22,20 C22,21.104 21.104,22 20,22 L4,22 C2.895,22 2,21.104 2,20 L2,15 C2,13.896 2.895,13 4,13 L22,13 L6,13 Z M19.248,15.5112222 L18.248,15.5112222 C17.144,15.5112222 16.248,16.4072222 16.248,17.5112222 C16.248,18.6162222 17.144,19.5112222 18.248,19.5112222 L19.248,19.5112222 L19.248,17.5112222 L18.498,17.5112222 M7.502,15.5112222 L5.752,15.5112222 C5.2,15.5112222 4.752,15.9592222 4.752,16.5112222 C4.752,17.0632222 5.2,17.5112222 5.752,17.5112222 L6.752,17.5112222 C7.305,17.5112222 7.752,17.9592222 7.752,18.5112222 C7.752,19.0632222 7.305,19.5112222 6.752,19.5112222 L5.002,19.5112222 M13.498,15.5112222 L12,19.5112222 L10.502,15.5112222" stroke="#808080"></path></g></svg>