<svg viewBox="0 0 24 24" xmlns="http://www.w3.org/2000/svg"><path d="m0 0h24v24h-24z" fill="#fff" opacity="0"/><path d="m18.26 3h-12.52a2.74 2.74 0 0 0 -2.74 2.74v12.52a2.74 2.74 0 0 0 2.74 2.74h12.52a2.74 2.74 0 0 0 2.74-2.74v-12.52a2.74 2.74 0 0 0 -2.74-2.74zm-11.26 8h-2v-2h2zm-2 2h2v2h-2zm14-2h-2v-2h2zm-2 2h2v2h-2zm2-7.26v1.26h-2v-2h1.26a.74.74 0 0 1 .74.74zm-13.26-.74h1.26v2h-2v-1.26a.74.74 0 0 1 .74-.74zm-.74 13.26v-1.26h2v2h-1.26a.74.74 0 0 1 -.74-.74zm14 0a.74.74 0 0 1 -.74.74h-1.26v-2h2z" fill="#231f20"/></svg>