<?xml version="1.0" standalone="no"?>
<!DOCTYPE svg PUBLIC "-//W3C//DTD SVG 20010904//EN"
 "http://www.w3.org/TR/2001/REC-SVG-20010904/DTD/svg10.dtd">
<svg version="1.0" xmlns="http://www.w3.org/2000/svg"
 width="500.000000pt" height="500.000000pt" viewBox="0 0 500.000000 500.000000"
 preserveAspectRatio="xMidYMid meet">
<metadata>
Created by potrace 1.14, written by Peter Selinger 2001-2017
</metadata>
<g transform="translate(0.000000,500.000000) scale(0.100000,-0.100000)"
fill="#000000" stroke="none">
<path d="M2818 4388 c-3 -11 -2 -1669 1 -1731 1 -18 24 -18 524 -15 579 5 574
4 712 73 240 120 333 378 223 615 -30 63 -134 180 -162 180 -6 0 -19 7 -30 15
-17 13 -15 17 41 69 97 90 143 199 143 339 -1 221 -143 382 -394 446 -73 18
-113 20 -566 21 -389 0 -488 -2 -492 -12z m864 -387 c36 -17 50 -31 62 -62 34
-85 11 -169 -56 -206 -27 -15 -63 -19 -203 -21 l-171 -4 2 154 c1 84 2 156 3
159 0 3 72 5 159 4 141 -1 163 -4 204 -24z m41 -675 c126 -61 110 -260 -25
-297 -43 -11 -357 -17 -374 -6 -7 4 -10 63 -8 164 1 87 2 158 3 159 0 1 83 0
184 0 153 -2 188 -5 220 -20z"/>
<path d="M620 3484 l0 -854 245 0 245 0 2 429 3 429 159 -224 c88 -123 162
-225 165 -225 3 -1 76 -2 162 -3 l156 -1 159 222 c87 123 160 223 163 223 4 0
6 -191 6 -425 l-1 -425 243 0 243 0 0 853 0 854 -194 0 c-107 0 -199 -3 -204
-6 -5 -3 -103 -139 -217 -301 -114 -162 -220 -311 -235 -330 -14 -19 -45 -63
-68 -97 -23 -34 -46 -64 -51 -67 -7 -5 -354 476 -473 653 -9 15 -37 53 -60 86
l-44 60 -202 1 -202 1 0 -853z"/>
<path d="M1420 2464 c-47 -7 -107 -19 -135 -27 -27 -8 -56 -16 -64 -18 -8 -2
-50 -21 -94 -42 -321 -153 -497 -444 -499 -822 -1 -241 85 -463 242 -626 147
-151 301 -230 540 -274 57 -11 255 -13 317 -3 123 19 165 30 267 70 144 57
302 181 384 299 50 74 99 179 128 275 23 78 27 108 28 239 1 169 -3 210 -34
310 -89 285 -299 493 -590 584 -143 45 -333 58 -490 35z m305 -478 c190 -56
308 -233 299 -448 -4 -111 -35 -194 -101 -275 -118 -147 -358 -193 -543 -105
-60 28 -139 96 -170 147 -80 129 -88 342 -19 477 30 58 124 149 184 178 101
49 237 59 350 26z"/>
<path d="M2630 2367 c0 -11 33 -67 45 -77 8 -7 15 -16 15 -21 0 -5 17 -35 39
-67 21 -31 69 -104 106 -162 75 -116 154 -239 281 -435 46 -71 84 -134 84
-138 0 -4 -87 -143 -192 -307 -106 -165 -228 -354 -270 -421 -43 -66 -78 -122
-78 -125 0 -2 127 -3 282 -2 l281 3 36 57 c20 32 90 144 155 249 l120 192 20
-26 c12 -14 84 -127 160 -251 l140 -226 283 0 c225 0 283 3 277 13 -12 18
-110 171 -172 267 -30 47 -68 105 -83 130 -16 25 -34 52 -39 60 -5 8 -43 67
-83 130 -40 63 -94 148 -121 188 l-47 73 78 120 c43 66 83 128 88 137 6 10 35
56 66 102 31 47 82 126 114 175 32 50 95 146 140 215 44 69 84 131 89 138 6 9
-54 12 -288 12 l-294 0 -163 -260 c-89 -143 -163 -259 -164 -258 -3 4 -214
345 -276 445 l-44 73 -292 0 c-161 0 -293 -2 -293 -3z"/>
<path d="M1943 463 c-22 -8 -14 -39 13 -51 28 -14 23 -36 -7 -27 -11 4 -19 2
-19 -5 0 -6 12 -10 28 -8 38 4 44 43 8 52 -34 8 -34 30 -1 24 28 -6 34 6 9 16
-9 3 -16 6 -17 5 -1 0 -8 -3 -14 -6z"/>
<path d="M2094 458 c-3 -4 2 -8 10 -8 17 0 20 -8 17 -53 -1 -16 2 -26 7 -23 5
3 9 24 10 48 2 39 0 44 -18 44 -12 0 -24 -4 -26 -8z"/>
<path d="M2150 460 c0 -5 5 -10 11 -10 5 0 7 5 4 10 -3 6 -8 10 -11 10 -2 0
-4 -4 -4 -10z"/>
<path d="M2286 454 c-32 -31 -14 -84 29 -84 27 0 45 18 45 46 0 25 -24 54 -45
54 -7 0 -21 -7 -29 -16z m58 -20 c8 -20 -11 -54 -29 -54 -8 0 -19 9 -25 19
-13 25 -13 27 5 45 17 17 41 12 49 -10z"/>
<path d="M2470 419 c0 -29 4 -48 10 -44 5 3 7 11 4 18 -8 23 33 17 44 -6 8
-18 10 -14 10 26 0 29 -4 47 -11 48 -7 0 -22 2 -34 5 -21 4 -23 0 -23 -47z
m58 19 c-7 -20 -48 -23 -48 -4 0 11 9 16 26 16 16 0 24 -5 22 -12z"/>
<path d="M2663 422 l-22 -52 24 16 c20 13 24 13 39 -2 25 -25 26 -14 2 40
l-22 50 -21 -52z m31 3 c3 -9 0 -15 -9 -15 -9 0 -12 6 -9 15 4 8 7 15 9 15 2
0 5 -7 9 -15z"/>
<path d="M2843 455 c-23 -16 -24 -45 -2 -71 16 -19 55 -18 63 2 8 21 -1 34
-22 33 -11 0 -12 -3 -4 -6 16 -6 16 -33 -1 -33 -18 0 -37 21 -37 42 0 20 28
38 49 30 8 -3 11 0 7 7 -10 15 -27 14 -53 -4z"/>
<path d="M3015 460 c-1 -3 -2 -23 -1 -45 1 -37 3 -40 31 -42 20 -1 23 0 8 4
-13 2 -23 11 -23 19 0 8 10 14 23 14 17 0 19 2 7 9 -8 6 -18 7 -23 4 -5 -3 -7
3 -5 13 2 11 11 18 21 16 9 -2 17 2 17 7 0 11 -49 11 -55 1z"/>
</g>
</svg>
