<?xml version="1.0" encoding="UTF-8"?>
<svg width="800px" height="800px" version="1.1" viewBox="0 0 303.19 303.19" xml:space="preserve" xmlns="http://www.w3.org/2000/svg">

	<polygon points="219.82 0 32.842 0 32.842 303.19 270.35 303.19 270.35 50.525" fill="#E8E8E8"/>
	<path d="m230.01 149.94c-3.643-6.493-16.231-8.533-22.006-9.451-4.552-0.724-9.199-0.94-13.803-0.936-3.615-0.024-7.177 0.154-10.693 0.354-1.296 0.087-2.579 0.199-3.861 0.31-1.314-1.36-2.584-2.765-3.813-4.202-7.82-9.257-14.134-19.755-19.279-30.664 1.366-5.271 2.459-10.772 3.119-16.485 1.205-10.427 1.619-22.31-2.288-32.251-1.349-3.431-4.946-7.608-9.096-5.528-4.771 2.392-6.113 9.169-6.502 13.973-0.313 3.883-0.094 7.776 0.558 11.594 0.664 3.844 1.733 7.494 2.897 11.139 1.086 3.342 2.283 6.658 3.588 9.943-0.828 2.586-1.707 5.127-2.63 7.603-2.152 5.643-4.479 11.004-6.717 16.161-1.18 2.557-2.335 5.06-3.465 7.507-3.576 7.855-7.458 15.566-11.815 23.02-10.163 3.585-19.283 7.741-26.857 12.625-4.063 2.625-7.652 5.476-10.641 8.603-2.822 2.952-5.69 6.783-5.941 11.024-0.141 2.394 0.807 4.717 2.768 6.137 2.697 2.015 6.271 1.881 9.4 1.225 10.25-2.15 18.121-10.961 24.824-18.387 4.617-5.115 9.872-11.61 15.369-19.465 0.012-0.018 0.024-0.036 0.037-0.054 9.428-2.923 19.689-5.391 30.579-7.205 4.975-0.825 10.082-1.5 15.291-1.974 3.663 3.431 7.621 6.555 11.939 9.164 3.363 2.069 6.94 3.816 10.684 5.119 3.786 1.237 7.595 2.247 11.528 2.886 1.986 0.284 4.017 0.413 6.092 0.335 4.631-0.175 11.278-1.951 11.714-7.57 0.134-1.72-0.237-3.228-0.98-4.55zm-110.87 10.31c-2.169 3.36-4.261 6.382-6.232 9.041-4.827 6.568-10.34 14.369-18.322 17.286-1.516 0.554-3.512 1.126-5.616 1.002-1.874-0.11-3.722-0.937-3.637-3.065 0.042-1.114 0.587-2.535 1.423-3.931 0.915-1.531 2.048-2.935 3.275-4.226 2.629-2.762 5.953-5.439 9.777-7.918 5.865-3.805 12.867-7.23 20.672-10.286-0.449 0.71-0.897 1.416-1.34 2.097zm27.222-84.26c-0.602-3.514-0.693-7.077-0.323-10.503 0.184-1.713 0.533-3.385 1.038-4.952 0.428-1.33 1.352-4.576 2.826-4.993 2.43-0.688 3.177 4.529 3.452 6.005 1.566 8.396 0.186 17.733-1.693 25.969-0.299 1.31-0.632 2.599-0.973 3.883-0.582-1.601-1.137-3.207-1.648-4.821-1.1-3.525-2.106-7.091-2.679-10.588zm16.683 66.28c-9.13 1.48-17.815 3.419-25.979 5.708 0.983-0.275 5.475-8.788 6.477-10.555 4.721-8.315 8.583-17.042 11.358-26.197 4.9 9.691 10.847 18.962 18.153 27.214 0.673 0.749 1.357 1.489 2.053 2.22-4.094 0.441-8.123 0.978-12.062 1.61zm61.744 11.694c-0.334 1.805-4.189 2.837-5.988 3.121-5.316 0.836-10.94 0.167-16.028-1.542-3.491-1.172-6.858-2.768-10.057-4.688-3.18-1.921-6.155-4.181-8.936-6.673 3.429-0.206 6.9-0.341 10.388-0.275 3.488 0.035 7.003 0.211 10.475 0.664 6.511 0.726 13.807 2.961 18.932 7.186 1.009 0.833 1.331 1.569 1.214 2.207z" fill="#FB3449"/>
	<polygon points="227.64 25.263 32.842 25.263 32.842 0 219.82 0" fill="#FB3449"/>
	<g fill="#A4A9AD">
		<path d="m126.84 241.15c0 5.361-1.58 9.501-4.742 12.421-3.162 2.921-7.652 4.381-13.472 4.381h-3.643v15.917h-12.962v-47.979h16.606c6.06 0 10.611 1.324 13.652 3.971s4.561 6.41 4.561 11.289zm-21.856 6.235h2.363c1.947 0 3.495-0.546 4.644-1.641 1.149-1.094 1.723-2.604 1.723-4.529 0-3.238-1.794-4.857-5.382-4.857h-3.348v11.027z"/>
		<path d="m175.22 248.86c0 8.007-2.205 14.177-6.613 18.509s-10.606 6.498-18.591 6.498h-15.523v-47.979h16.606c7.701 0 13.646 1.969 17.836 5.907 4.189 3.938 6.285 9.627 6.285 17.065zm-13.455 0.46c0-4.398-0.87-7.657-2.609-9.78-1.739-2.122-4.381-3.183-7.926-3.183h-3.773v26.877h2.888c3.939 0 6.826-1.143 8.664-3.43 1.837-2.285 2.756-5.78 2.756-10.484z"/>
		<path d="m196.58 273.87h-12.766v-47.979h28.355v10.403h-15.589v9.156h14.374v10.403h-14.374v18.017z"/>
	</g>
	<polygon points="219.82 50.525 270.35 50.525 219.82 0" fill="#D1D3D3"/>

</svg>
